<?xml version="1.0" encoding="UTF-8"?><svg xmlns="http://www.w3.org/2000/svg" width="379" height="141" viewBox="-0.5 -0.5 379 141" ><style><![CDATA[.B{pointer-events:all}.C{fill:#000}.D{font-family:Helvetica}.E{font-size:12px}.F{text-anchor:middle}.G{stroke:#fff}.H{fill:#f7df1e}.I{fill:#dae8fc}.J{stroke-miterlimit:10}.K{pointer-events:stroke}]]></style><path d="M78 35h60v50H78z" class="B G H"/><text x="107.5" y="63.5" class="C D E F">1</text><path d="M138 35h60v50h-60z" class="B G H"/><text x="167.5" y="63.5" class="C D E F">2</text><path d="M198 35h60v50h-60z" class="B G H"/><text x="227.5" y="63.5" class="C D E F">"Three"</text><path d="M258 35h60v50h-60z" class="B G H"/><text x="287.5" y="63.5" class="C D E F">true</text><path d="M318 35h60v50h-60z" class="B G H"/><text x="347.5" y="63.5" class="C D E F">null</text><path d="M78 0h60v27H78z" class="B G I"/><text x="107.5" y="16.5" class="C D E F">0</text><path d="M138 0h60v27h-60z" class="B G I"/><text x="167.5" y="16.5" class="C D E F">1</text><path d="M198 0h60v27h-60z" class="B G I"/><text x="227.5" y="16.5" class="C D E F">2</text><path d="M258 0h60v27h-60z" class="B G I"/><text x="287.5" y="16.5" class="C D E F">3</text><path d="M318 0h60v27h-60z" class="B G I"/><text x="347.5" y="16.5" class="C D E F">4</text><g stroke="#d4e1f5"><g class="J"><path d="M40 13.5h20-2 13.63" fill="none" class="K"/><path d="M76.88 13.5l-7 3.5 1.75-3.5-1.75-3.5z" fill="#d4e1f5" class="B"/></g><path fill="#d4e1f5" d="M0 3.5h40v20H0z" class="B"/></g><text x="19.5" y="16.5" class="C D E F">Index</text><g stroke="#f7df1e" class="J"><path d="M108 120v-20 5-13.63" fill="none" class="K"/><path d="M108 86.12l3.5 7-3.5-1.75-3.5 1.75z" class="B H"/></g><path stroke="#f7df1e" d="M81 120h54v20H81z" class="B H"/><text x="107.5" y="133.5" class="C D E F">Element</text></svg>